<mxfile host="65bd71144e">
    <diagram id="v41SZeHCJA9sD-jcg90b" name="第1頁">
        <mxGraphModel dx="1066" dy="524" grid="1" gridSize="10" guides="1" tooltips="1" connect="1" arrows="1" fold="1" page="1" pageScale="1" pageWidth="827" pageHeight="1169" math="0" shadow="0">
            <root>
                <mxCell id="0"/>
                <mxCell id="1" parent="0"/>
                <mxCell id="I_-aReT9PgxBrzWjO7Ln-5" value="browser" style="swimlane;fontStyle=0;childLayout=stackLayout;horizontal=1;startSize=26;fillColor=none;horizontalStack=0;resizeParent=1;resizeParentMax=0;resizeLast=0;collapsible=1;marginBottom=0;" parent="1" vertex="1">
                    <mxGeometry x="344" y="10" width="140" height="52" as="geometry"/>
                </mxCell>
                <mxCell id="I_-aReT9PgxBrzWjO7Ln-6" value="1" style="text;strokeColor=none;fillColor=none;align=left;verticalAlign=top;spacingLeft=4;spacingRight=4;overflow=hidden;rotatable=0;points=[[0,0.5],[1,0.5]];portConstraint=eastwest;" parent="I_-aReT9PgxBrzWjO7Ln-5" vertex="1">
                    <mxGeometry y="26" width="140" height="26" as="geometry"/>
                </mxCell>
                <mxCell id="I_-aReT9PgxBrzWjO7Ln-11" value="animation play" style="swimlane;fontStyle=0;childLayout=stackLayout;horizontal=1;startSize=26;fillColor=none;horizontalStack=0;resizeParent=1;resizeParentMax=0;resizeLast=0;collapsible=1;marginBottom=0;" parent="1" vertex="1">
                    <mxGeometry x="1050" y="144" width="140" height="130" as="geometry"/>
                </mxCell>
                <mxCell id="I_-aReT9PgxBrzWjO7Ln-12" value="Picture quality 360p" style="text;strokeColor=none;fillColor=none;align=left;verticalAlign=top;spacingLeft=4;spacingRight=4;overflow=hidden;rotatable=0;points=[[0,0.5],[1,0.5]];portConstraint=eastwest;" parent="I_-aReT9PgxBrzWjO7Ln-11" vertex="1">
                    <mxGeometry y="26" width="140" height="26" as="geometry"/>
                </mxCell>
                <mxCell id="I_-aReT9PgxBrzWjO7Ln-14" value="Picture quality 540p" style="text;strokeColor=none;fillColor=none;align=left;verticalAlign=top;spacingLeft=4;spacingRight=4;overflow=hidden;rotatable=0;points=[[0,0.5],[1,0.5]];portConstraint=eastwest;" parent="I_-aReT9PgxBrzWjO7Ln-11" vertex="1">
                    <mxGeometry y="52" width="140" height="26" as="geometry"/>
                </mxCell>
                <mxCell id="I_-aReT9PgxBrzWjO7Ln-13" value="Picture quality 720p" style="text;strokeColor=none;fillColor=none;align=left;verticalAlign=top;spacingLeft=4;spacingRight=4;overflow=hidden;rotatable=0;points=[[0,0.5],[1,0.5]];portConstraint=eastwest;" parent="I_-aReT9PgxBrzWjO7Ln-11" vertex="1">
                    <mxGeometry y="78" width="140" height="26" as="geometry"/>
                </mxCell>
                <mxCell id="kvaUCSGCvhoi4QqgEwGG-25" value="no age limit" style="text;strokeColor=none;fillColor=none;align=left;verticalAlign=top;spacingLeft=4;spacingRight=4;overflow=hidden;rotatable=0;points=[[0,0.5],[1,0.5]];portConstraint=eastwest;" parent="I_-aReT9PgxBrzWjO7Ln-11" vertex="1">
                    <mxGeometry y="104" width="140" height="26" as="geometry"/>
                </mxCell>
                <mxCell id="I_-aReT9PgxBrzWjO7Ln-17" value="warrior" style="swimlane;fontStyle=0;childLayout=stackLayout;horizontal=1;startSize=26;fillColor=none;horizontalStack=0;resizeParent=1;resizeParentMax=0;resizeLast=0;collapsible=1;marginBottom=0;" parent="1" vertex="1">
                    <mxGeometry x="344" y="170" width="140" height="52" as="geometry"/>
                </mxCell>
                <mxCell id="I_-aReT9PgxBrzWjO7Ln-18" value="1" style="text;strokeColor=none;fillColor=none;align=left;verticalAlign=top;spacingLeft=4;spacingRight=4;overflow=hidden;rotatable=0;points=[[0,0.5],[1,0.5]];portConstraint=eastwest;" parent="I_-aReT9PgxBrzWjO7Ln-17" vertex="1">
                    <mxGeometry y="26" width="140" height="26" as="geometry"/>
                </mxCell>
                <mxCell id="I_-aReT9PgxBrzWjO7Ln-21" value="member" style="swimlane;fontStyle=0;childLayout=stackLayout;horizontal=1;startSize=26;fillColor=none;horizontalStack=0;resizeParent=1;resizeParentMax=0;resizeLast=0;collapsible=1;marginBottom=0;" parent="1" vertex="1">
                    <mxGeometry x="344" y="560" width="140" height="52" as="geometry"/>
                </mxCell>
                <mxCell id="I_-aReT9PgxBrzWjO7Ln-22" value="1" style="text;strokeColor=none;fillColor=none;align=left;verticalAlign=top;spacingLeft=4;spacingRight=4;overflow=hidden;rotatable=0;points=[[0,0.5],[1,0.5]];portConstraint=eastwest;" parent="I_-aReT9PgxBrzWjO7Ln-21" vertex="1">
                    <mxGeometry y="26" width="140" height="26" as="geometry"/>
                </mxCell>
                <mxCell id="kvaUCSGCvhoi4QqgEwGG-2" value="advertise" style="swimlane;fontStyle=0;childLayout=stackLayout;horizontal=1;startSize=26;fillColor=none;horizontalStack=0;resizeParent=1;resizeParentMax=0;resizeLast=0;collapsible=1;marginBottom=0;" parent="1" vertex="1">
                    <mxGeometry x="850" y="144" width="140" height="78" as="geometry"/>
                </mxCell>
                <mxCell id="kvaUCSGCvhoi4QqgEwGG-5" value="link" style="text;strokeColor=none;fillColor=none;align=left;verticalAlign=top;spacingLeft=4;spacingRight=4;overflow=hidden;rotatable=0;points=[[0,0.5],[1,0.5]];portConstraint=eastwest;" parent="kvaUCSGCvhoi4QqgEwGG-2" vertex="1">
                    <mxGeometry y="26" width="140" height="26" as="geometry"/>
                </mxCell>
                <mxCell id="kvaUCSGCvhoi4QqgEwGG-8" value="website" style="text;strokeColor=none;fillColor=none;align=left;verticalAlign=top;spacingLeft=4;spacingRight=4;overflow=hidden;rotatable=0;points=[[0,0.5],[1,0.5]];portConstraint=eastwest;" parent="kvaUCSGCvhoi4QqgEwGG-2" vertex="1">
                    <mxGeometry y="52" width="140" height="26" as="geometry"/>
                </mxCell>
                <mxCell id="kvaUCSGCvhoi4QqgEwGG-9" value="history" style="swimlane;fontStyle=0;childLayout=stackLayout;horizontal=1;startSize=26;fillColor=none;horizontalStack=0;resizeParent=1;resizeParentMax=0;resizeLast=0;collapsible=1;marginBottom=0;" parent="1" vertex="1">
                    <mxGeometry x="640" y="157" width="140" height="104" as="geometry"/>
                </mxCell>
                <mxCell id="kvaUCSGCvhoi4QqgEwGG-12" value="keywords" style="text;strokeColor=none;fillColor=none;align=left;verticalAlign=top;spacingLeft=4;spacingRight=4;overflow=hidden;rotatable=0;points=[[0,0.5],[1,0.5]];portConstraint=eastwest;" parent="kvaUCSGCvhoi4QqgEwGG-9" vertex="1">
                    <mxGeometry y="26" width="140" height="26" as="geometry"/>
                </mxCell>
                <mxCell id="kvaUCSGCvhoi4QqgEwGG-13" value="favorite" style="text;strokeColor=none;fillColor=none;align=left;verticalAlign=top;spacingLeft=4;spacingRight=4;overflow=hidden;rotatable=0;points=[[0,0.5],[1,0.5]];portConstraint=eastwest;" parent="kvaUCSGCvhoi4QqgEwGG-9" vertex="1">
                    <mxGeometry y="52" width="140" height="26" as="geometry"/>
                </mxCell>
                <mxCell id="kvaUCSGCvhoi4QqgEwGG-110" value="watch history" style="text;strokeColor=none;fillColor=none;align=left;verticalAlign=top;spacingLeft=4;spacingRight=4;overflow=hidden;rotatable=0;points=[[0,0.5],[1,0.5]];portConstraint=eastwest;" parent="kvaUCSGCvhoi4QqgEwGG-9" vertex="1">
                    <mxGeometry y="78" width="140" height="26" as="geometry"/>
                </mxCell>
                <mxCell id="kvaUCSGCvhoi4QqgEwGG-14" value="Certification" style="swimlane;fontStyle=0;childLayout=stackLayout;horizontal=1;startSize=26;fillColor=none;horizontalStack=0;resizeParent=1;resizeParentMax=0;resizeLast=0;collapsible=1;marginBottom=0;" parent="1" vertex="1">
                    <mxGeometry x="344" y="328" width="140" height="182" as="geometry"/>
                </mxCell>
                <mxCell id="kvaUCSGCvhoi4QqgEwGG-15" value="Internet bill" style="text;strokeColor=none;fillColor=none;align=left;verticalAlign=top;spacingLeft=4;spacingRight=4;overflow=hidden;rotatable=0;points=[[0,0.5],[1,0.5]];portConstraint=eastwest;" parent="kvaUCSGCvhoi4QqgEwGG-14" vertex="1">
                    <mxGeometry y="26" width="140" height="26" as="geometry"/>
                </mxCell>
                <mxCell id="kvaUCSGCvhoi4QqgEwGG-16" value="mobile bill" style="text;strokeColor=none;fillColor=none;align=left;verticalAlign=top;spacingLeft=4;spacingRight=4;overflow=hidden;rotatable=0;points=[[0,0.5],[1,0.5]];portConstraint=eastwest;" parent="kvaUCSGCvhoi4QqgEwGG-14" vertex="1">
                    <mxGeometry y="52" width="140" height="26" as="geometry"/>
                </mxCell>
                <mxCell id="kvaUCSGCvhoi4QqgEwGG-17" value="local bill" style="text;strokeColor=none;fillColor=none;align=left;verticalAlign=top;spacingLeft=4;spacingRight=4;overflow=hidden;rotatable=0;points=[[0,0.5],[1,0.5]];portConstraint=eastwest;" parent="kvaUCSGCvhoi4QqgEwGG-14" vertex="1">
                    <mxGeometry y="78" width="140" height="26" as="geometry"/>
                </mxCell>
                <mxCell id="kvaUCSGCvhoi4QqgEwGG-18" value="credit card" style="text;strokeColor=none;fillColor=none;align=left;verticalAlign=top;spacingLeft=4;spacingRight=4;overflow=hidden;rotatable=0;points=[[0,0.5],[1,0.5]];portConstraint=eastwest;" parent="kvaUCSGCvhoi4QqgEwGG-14" vertex="1">
                    <mxGeometry y="104" width="140" height="26" as="geometry"/>
                </mxCell>
                <mxCell id="kvaUCSGCvhoi4QqgEwGG-19" value="Line pay" style="text;strokeColor=none;fillColor=none;align=left;verticalAlign=top;spacingLeft=4;spacingRight=4;overflow=hidden;rotatable=0;points=[[0,0.5],[1,0.5]];portConstraint=eastwest;" parent="kvaUCSGCvhoi4QqgEwGG-14" vertex="1">
                    <mxGeometry y="130" width="140" height="26" as="geometry"/>
                </mxCell>
                <mxCell id="kvaUCSGCvhoi4QqgEwGG-20" value="Google pay" style="text;strokeColor=none;fillColor=none;align=left;verticalAlign=top;spacingLeft=4;spacingRight=4;overflow=hidden;rotatable=0;points=[[0,0.5],[1,0.5]];portConstraint=eastwest;" parent="kvaUCSGCvhoi4QqgEwGG-14" vertex="1">
                    <mxGeometry y="156" width="140" height="26" as="geometry"/>
                </mxCell>
                <mxCell id="kvaUCSGCvhoi4QqgEwGG-21" value="animation play" style="swimlane;fontStyle=0;childLayout=stackLayout;horizontal=1;startSize=26;fillColor=none;horizontalStack=0;resizeParent=1;resizeParentMax=0;resizeLast=0;collapsible=1;marginBottom=0;" parent="1" vertex="1">
                    <mxGeometry x="850" y="540" width="140" height="78" as="geometry"/>
                </mxCell>
                <mxCell id="kvaUCSGCvhoi4QqgEwGG-22" value="Picture quality 1080p" style="text;strokeColor=none;fillColor=none;align=left;verticalAlign=top;spacingLeft=4;spacingRight=4;overflow=hidden;rotatable=0;points=[[0,0.5],[1,0.5]];portConstraint=eastwest;" parent="kvaUCSGCvhoi4QqgEwGG-21" vertex="1">
                    <mxGeometry y="26" width="140" height="26" as="geometry"/>
                </mxCell>
                <mxCell id="kvaUCSGCvhoi4QqgEwGG-23" value="age limit" style="text;strokeColor=none;fillColor=none;align=left;verticalAlign=top;spacingLeft=4;spacingRight=4;overflow=hidden;rotatable=0;points=[[0,0.5],[1,0.5]];portConstraint=eastwest;" parent="kvaUCSGCvhoi4QqgEwGG-21" vertex="1">
                    <mxGeometry y="52" width="140" height="26" as="geometry"/>
                </mxCell>
                <mxCell id="kvaUCSGCvhoi4QqgEwGG-26" value="Marquee" style="swimlane;fontStyle=0;childLayout=stackLayout;horizontal=1;startSize=26;fillColor=none;horizontalStack=0;resizeParent=1;resizeParentMax=0;resizeLast=0;collapsible=1;marginBottom=0;" parent="1" vertex="1">
                    <mxGeometry x="1290" y="300" width="140" height="156" as="geometry"/>
                </mxCell>
                <mxCell id="kvaUCSGCvhoi4QqgEwGG-27" value="browse" style="text;strokeColor=none;fillColor=none;align=left;verticalAlign=top;spacingLeft=4;spacingRight=4;overflow=hidden;rotatable=0;points=[[0,0.5],[1,0.5]];portConstraint=eastwest;" parent="kvaUCSGCvhoi4QqgEwGG-26" vertex="1">
                    <mxGeometry y="26" width="140" height="26" as="geometry"/>
                </mxCell>
                <mxCell id="kvaUCSGCvhoi4QqgEwGG-28" value="send" style="text;strokeColor=none;fillColor=none;align=left;verticalAlign=top;spacingLeft=4;spacingRight=4;overflow=hidden;rotatable=0;points=[[0,0.5],[1,0.5]];portConstraint=eastwest;" parent="kvaUCSGCvhoi4QqgEwGG-26" vertex="1">
                    <mxGeometry y="52" width="140" height="26" as="geometry"/>
                </mxCell>
                <mxCell id="kvaUCSGCvhoi4QqgEwGG-30" value="close" style="text;strokeColor=none;fillColor=none;align=left;verticalAlign=top;spacingLeft=4;spacingRight=4;overflow=hidden;rotatable=0;points=[[0,0.5],[1,0.5]];portConstraint=eastwest;" parent="kvaUCSGCvhoi4QqgEwGG-26" vertex="1">
                    <mxGeometry y="78" width="140" height="26" as="geometry"/>
                </mxCell>
                <mxCell id="kvaUCSGCvhoi4QqgEwGG-29" value="report" style="text;strokeColor=none;fillColor=none;align=left;verticalAlign=top;spacingLeft=4;spacingRight=4;overflow=hidden;rotatable=0;points=[[0,0.5],[1,0.5]];portConstraint=eastwest;" parent="kvaUCSGCvhoi4QqgEwGG-26" vertex="1">
                    <mxGeometry y="104" width="140" height="26" as="geometry"/>
                </mxCell>
                <mxCell id="kvaUCSGCvhoi4QqgEwGG-53" value="delete" style="text;strokeColor=none;fillColor=none;align=left;verticalAlign=top;spacingLeft=4;spacingRight=4;overflow=hidden;rotatable=0;points=[[0,0.5],[1,0.5]];portConstraint=eastwest;" parent="kvaUCSGCvhoi4QqgEwGG-26" vertex="1">
                    <mxGeometry y="130" width="140" height="26" as="geometry"/>
                </mxCell>
                <mxCell id="kvaUCSGCvhoi4QqgEwGG-31" value="comments" style="swimlane;fontStyle=0;childLayout=stackLayout;horizontal=1;startSize=26;fillColor=none;horizontalStack=0;resizeParent=1;resizeParentMax=0;resizeLast=0;collapsible=1;marginBottom=0;" parent="1" vertex="1">
                    <mxGeometry x="1150" y="585" width="140" height="208" as="geometry"/>
                </mxCell>
                <mxCell id="kvaUCSGCvhoi4QqgEwGG-32" value="browse" style="text;strokeColor=none;fillColor=none;align=left;verticalAlign=top;spacingLeft=4;spacingRight=4;overflow=hidden;rotatable=0;points=[[0,0.5],[1,0.5]];portConstraint=eastwest;" parent="kvaUCSGCvhoi4QqgEwGG-31" vertex="1">
                    <mxGeometry y="26" width="140" height="26" as="geometry"/>
                </mxCell>
                <mxCell id="kvaUCSGCvhoi4QqgEwGG-33" value="send" style="text;strokeColor=none;fillColor=none;align=left;verticalAlign=top;spacingLeft=4;spacingRight=4;overflow=hidden;rotatable=0;points=[[0,0.5],[1,0.5]];portConstraint=eastwest;" parent="kvaUCSGCvhoi4QqgEwGG-31" vertex="1">
                    <mxGeometry y="52" width="140" height="26" as="geometry"/>
                </mxCell>
                <mxCell id="kvaUCSGCvhoi4QqgEwGG-35" value="score" style="text;strokeColor=none;fillColor=none;align=left;verticalAlign=top;spacingLeft=4;spacingRight=4;overflow=hidden;rotatable=0;points=[[0,0.5],[1,0.5]];portConstraint=eastwest;" parent="kvaUCSGCvhoi4QqgEwGG-31" vertex="1">
                    <mxGeometry y="78" width="140" height="26" as="geometry"/>
                </mxCell>
                <mxCell id="kvaUCSGCvhoi4QqgEwGG-36" value="like" style="text;strokeColor=none;fillColor=none;align=left;verticalAlign=top;spacingLeft=4;spacingRight=4;overflow=hidden;rotatable=0;points=[[0,0.5],[1,0.5]];portConstraint=eastwest;" parent="kvaUCSGCvhoi4QqgEwGG-31" vertex="1">
                    <mxGeometry y="104" width="140" height="26" as="geometry"/>
                </mxCell>
                <mxCell id="kvaUCSGCvhoi4QqgEwGG-37" value="dislike" style="text;strokeColor=none;fillColor=none;align=left;verticalAlign=top;spacingLeft=4;spacingRight=4;overflow=hidden;rotatable=0;points=[[0,0.5],[1,0.5]];portConstraint=eastwest;" parent="kvaUCSGCvhoi4QqgEwGG-31" vertex="1">
                    <mxGeometry y="130" width="140" height="26" as="geometry"/>
                </mxCell>
                <mxCell id="kvaUCSGCvhoi4QqgEwGG-34" value="report" style="text;strokeColor=none;fillColor=none;align=left;verticalAlign=top;spacingLeft=4;spacingRight=4;overflow=hidden;rotatable=0;points=[[0,0.5],[1,0.5]];portConstraint=eastwest;" parent="kvaUCSGCvhoi4QqgEwGG-31" vertex="1">
                    <mxGeometry y="156" width="140" height="26" as="geometry"/>
                </mxCell>
                <mxCell id="kvaUCSGCvhoi4QqgEwGG-52" value="delete" style="text;strokeColor=none;fillColor=none;align=left;verticalAlign=top;spacingLeft=4;spacingRight=4;overflow=hidden;rotatable=0;points=[[0,0.5],[1,0.5]];portConstraint=eastwest;" parent="kvaUCSGCvhoi4QqgEwGG-31" vertex="1">
                    <mxGeometry y="182" width="140" height="26" as="geometry"/>
                </mxCell>
                <mxCell id="kvaUCSGCvhoi4QqgEwGG-40" value="Problems reward" style="swimlane;fontStyle=0;childLayout=stackLayout;horizontal=1;startSize=26;fillColor=none;horizontalStack=0;resizeParent=1;resizeParentMax=0;resizeLast=0;collapsible=1;marginBottom=0;" parent="1" vertex="1">
                    <mxGeometry x="50" y="300" width="140" height="104" as="geometry"/>
                </mxCell>
                <mxCell id="kvaUCSGCvhoi4QqgEwGG-41" value="e-mail" style="text;strokeColor=none;fillColor=none;align=left;verticalAlign=top;spacingLeft=4;spacingRight=4;overflow=hidden;rotatable=0;points=[[0,0.5],[1,0.5]];portConstraint=eastwest;" parent="kvaUCSGCvhoi4QqgEwGG-40" vertex="1">
                    <mxGeometry y="26" width="140" height="26" as="geometry"/>
                </mxCell>
                <mxCell id="kvaUCSGCvhoi4QqgEwGG-42" value="websitd letter" style="text;strokeColor=none;fillColor=none;align=left;verticalAlign=top;spacingLeft=4;spacingRight=4;overflow=hidden;rotatable=0;points=[[0,0.5],[1,0.5]];portConstraint=eastwest;" parent="kvaUCSGCvhoi4QqgEwGG-40" vertex="1">
                    <mxGeometry y="52" width="140" height="26" as="geometry"/>
                </mxCell>
                <mxCell id="kvaUCSGCvhoi4QqgEwGG-43" value="google forms" style="text;strokeColor=none;fillColor=none;align=left;verticalAlign=top;spacingLeft=4;spacingRight=4;overflow=hidden;rotatable=0;points=[[0,0.5],[1,0.5]];portConstraint=eastwest;" parent="kvaUCSGCvhoi4QqgEwGG-40" vertex="1">
                    <mxGeometry y="78" width="140" height="26" as="geometry"/>
                </mxCell>
                <mxCell id="kvaUCSGCvhoi4QqgEwGG-48" value="basic information" style="swimlane;fontStyle=0;childLayout=stackLayout;horizontal=1;startSize=26;fillColor=none;horizontalStack=0;resizeParent=1;resizeParentMax=0;resizeLast=0;collapsible=1;marginBottom=0;" parent="1" vertex="1">
                    <mxGeometry x="170" y="157" width="140" height="78" as="geometry"/>
                </mxCell>
                <mxCell id="kvaUCSGCvhoi4QqgEwGG-49" value="Nick name" style="text;strokeColor=none;fillColor=none;align=left;verticalAlign=top;spacingLeft=4;spacingRight=4;overflow=hidden;rotatable=0;points=[[0,0.5],[1,0.5]];portConstraint=eastwest;" parent="kvaUCSGCvhoi4QqgEwGG-48" vertex="1">
                    <mxGeometry y="26" width="140" height="26" as="geometry"/>
                </mxCell>
                <mxCell id="kvaUCSGCvhoi4QqgEwGG-50" value="password" style="text;strokeColor=none;fillColor=none;align=left;verticalAlign=top;spacingLeft=4;spacingRight=4;overflow=hidden;rotatable=0;points=[[0,0.5],[1,0.5]];portConstraint=eastwest;" parent="kvaUCSGCvhoi4QqgEwGG-48" vertex="1">
                    <mxGeometry y="52" width="140" height="26" as="geometry"/>
                </mxCell>
                <mxCell id="kvaUCSGCvhoi4QqgEwGG-54" value="arrangement" style="swimlane;fontStyle=0;childLayout=stackLayout;horizontal=1;startSize=26;fillColor=none;horizontalStack=0;resizeParent=1;resizeParentMax=0;resizeLast=0;collapsible=1;marginBottom=0;" parent="1" vertex="1">
                    <mxGeometry x="850" y="320" width="140" height="104" as="geometry"/>
                </mxCell>
                <mxCell id="kvaUCSGCvhoi4QqgEwGG-55" value="animation time" style="text;strokeColor=none;fillColor=none;align=left;verticalAlign=top;spacingLeft=4;spacingRight=4;overflow=hidden;rotatable=0;points=[[0,0.5],[1,0.5]];portConstraint=eastwest;" parent="kvaUCSGCvhoi4QqgEwGG-54" vertex="1">
                    <mxGeometry y="26" width="140" height="26" as="geometry"/>
                </mxCell>
                <mxCell id="kvaUCSGCvhoi4QqgEwGG-56" value="animation date" style="text;strokeColor=none;fillColor=none;align=left;verticalAlign=top;spacingLeft=4;spacingRight=4;overflow=hidden;rotatable=0;points=[[0,0.5],[1,0.5]];portConstraint=eastwest;" parent="kvaUCSGCvhoi4QqgEwGG-54" vertex="1">
                    <mxGeometry y="52" width="140" height="26" as="geometry"/>
                </mxCell>
                <mxCell id="kvaUCSGCvhoi4QqgEwGG-57" value="Viewers" style="text;strokeColor=none;fillColor=none;align=left;verticalAlign=top;spacingLeft=4;spacingRight=4;overflow=hidden;rotatable=0;points=[[0,0.5],[1,0.5]];portConstraint=eastwest;" parent="kvaUCSGCvhoi4QqgEwGG-54" vertex="1">
                    <mxGeometry y="78" width="140" height="26" as="geometry"/>
                </mxCell>
                <mxCell id="kvaUCSGCvhoi4QqgEwGG-66" value="System admin" style="swimlane;fontStyle=0;childLayout=stackLayout;horizontal=1;startSize=26;fillColor=none;horizontalStack=0;resizeParent=1;resizeParentMax=0;resizeLast=0;collapsible=1;marginBottom=0;" parent="1" vertex="1">
                    <mxGeometry x="800" y="764" width="140" height="52" as="geometry"/>
                </mxCell>
                <mxCell id="kvaUCSGCvhoi4QqgEwGG-67" value="1" style="text;strokeColor=none;fillColor=none;align=left;verticalAlign=top;spacingLeft=4;spacingRight=4;overflow=hidden;rotatable=0;points=[[0,0.5],[1,0.5]];portConstraint=eastwest;" parent="kvaUCSGCvhoi4QqgEwGG-66" vertex="1">
                    <mxGeometry y="26" width="140" height="26" as="geometry"/>
                </mxCell>
                <mxCell id="kvaUCSGCvhoi4QqgEwGG-70" value="" style="endArrow=none;html=1;rounded=0;entryX=1;entryY=0.5;entryDx=0;entryDy=0;exitX=0.5;exitY=1;exitDx=0;exitDy=0;exitPerimeter=0;" parent="1" source="kvaUCSGCvhoi4QqgEwGG-52" target="kvaUCSGCvhoi4QqgEwGG-66" edge="1">
                    <mxGeometry width="50" height="50" relative="1" as="geometry">
                        <mxPoint x="1220" y="860" as="sourcePoint"/>
                        <mxPoint x="937" y="780" as="targetPoint"/>
                        <Array as="points">
                            <mxPoint x="1220" y="930"/>
                            <mxPoint x="1010" y="930"/>
                            <mxPoint x="1010" y="790"/>
                        </Array>
                    </mxGeometry>
                </mxCell>
                <mxCell id="kvaUCSGCvhoi4QqgEwGG-72" value="" style="endArrow=none;html=1;rounded=0;entryX=0.5;entryY=1;entryDx=0;entryDy=0;entryPerimeter=0;" parent="1" target="kvaUCSGCvhoi4QqgEwGG-53" edge="1">
                    <mxGeometry width="50" height="50" relative="1" as="geometry">
                        <mxPoint x="1220" y="930" as="sourcePoint"/>
                        <mxPoint x="1360" y="930" as="targetPoint"/>
                        <Array as="points">
                            <mxPoint x="1360" y="930"/>
                            <mxPoint x="1360" y="560"/>
                        </Array>
                    </mxGeometry>
                </mxCell>
                <mxCell id="kvaUCSGCvhoi4QqgEwGG-73" value="" style="endArrow=none;html=1;rounded=0;entryX=0.507;entryY=1;entryDx=0;entryDy=0;entryPerimeter=0;exitX=0.5;exitY=0;exitDx=0;exitDy=0;" parent="1" source="I_-aReT9PgxBrzWjO7Ln-17" target="I_-aReT9PgxBrzWjO7Ln-6" edge="1">
                    <mxGeometry width="50" height="50" relative="1" as="geometry">
                        <mxPoint x="390" y="140" as="sourcePoint"/>
                        <mxPoint x="440" y="90" as="targetPoint"/>
                    </mxGeometry>
                </mxCell>
                <mxCell id="kvaUCSGCvhoi4QqgEwGG-74" value="" style="endArrow=none;html=1;rounded=0;entryX=0.507;entryY=1;entryDx=0;entryDy=0;entryPerimeter=0;exitX=0.5;exitY=0;exitDx=0;exitDy=0;" parent="1" edge="1">
                    <mxGeometry width="50" height="50" relative="1" as="geometry">
                        <mxPoint x="413" y="330" as="sourcePoint"/>
                        <mxPoint x="413.98" y="222" as="targetPoint"/>
                    </mxGeometry>
                </mxCell>
                <mxCell id="kvaUCSGCvhoi4QqgEwGG-75" value="" style="endArrow=none;html=1;rounded=0;entryX=1;entryY=0.5;entryDx=0;entryDy=0;exitX=0;exitY=0;exitDx=0;exitDy=0;exitPerimeter=0;" parent="1" source="I_-aReT9PgxBrzWjO7Ln-18" target="kvaUCSGCvhoi4QqgEwGG-49" edge="1">
                    <mxGeometry width="50" height="50" relative="1" as="geometry">
                        <mxPoint x="434" y="190" as="sourcePoint"/>
                        <mxPoint x="434.98" y="82" as="targetPoint"/>
                    </mxGeometry>
                </mxCell>
                <mxCell id="kvaUCSGCvhoi4QqgEwGG-76" value="" style="endArrow=none;html=1;rounded=0;entryX=0.5;entryY=0;entryDx=0;entryDy=0;exitX=0.5;exitY=1;exitDx=0;exitDy=0;exitPerimeter=0;" parent="1" source="kvaUCSGCvhoi4QqgEwGG-20" target="I_-aReT9PgxBrzWjO7Ln-21" edge="1">
                    <mxGeometry width="50" height="50" relative="1" as="geometry">
                        <mxPoint x="260" y="670" as="sourcePoint"/>
                        <mxPoint x="330" y="580" as="targetPoint"/>
                    </mxGeometry>
                </mxCell>
                <mxCell id="kvaUCSGCvhoi4QqgEwGG-80" value="" style="endArrow=none;html=1;rounded=0;exitX=1.007;exitY=-0.038;exitDx=0;exitDy=0;exitPerimeter=0;entryX=0;entryY=0.5;entryDx=0;entryDy=0;" parent="1" source="I_-aReT9PgxBrzWjO7Ln-18" target="kvaUCSGCvhoi4QqgEwGG-12" edge="1">
                    <mxGeometry width="50" height="50" relative="1" as="geometry">
                        <mxPoint x="540" y="100" as="sourcePoint"/>
                        <mxPoint x="590" y="50" as="targetPoint"/>
                    </mxGeometry>
                </mxCell>
                <mxCell id="kvaUCSGCvhoi4QqgEwGG-81" value="" style="endArrow=none;html=1;rounded=0;exitX=1;exitY=0.5;exitDx=0;exitDy=0;entryX=0.5;entryY=0;entryDx=0;entryDy=0;" parent="1" source="I_-aReT9PgxBrzWjO7Ln-5" target="kvaUCSGCvhoi4QqgEwGG-9" edge="1">
                    <mxGeometry width="50" height="50" relative="1" as="geometry">
                        <mxPoint x="490" y="35.50199999999995" as="sourcePoint"/>
                        <mxPoint x="645.02" y="36.49000000000001" as="targetPoint"/>
                        <Array as="points">
                            <mxPoint x="710" y="36"/>
                        </Array>
                    </mxGeometry>
                </mxCell>
                <mxCell id="kvaUCSGCvhoi4QqgEwGG-83" value="" style="endArrow=none;html=1;rounded=0;exitX=1.014;exitY=-0.115;exitDx=0;exitDy=0;exitPerimeter=0;" parent="1" source="I_-aReT9PgxBrzWjO7Ln-22" edge="1">
                    <mxGeometry width="50" height="50" relative="1" as="geometry">
                        <mxPoint x="494.98" y="205.01199999999994" as="sourcePoint"/>
                        <mxPoint x="710" y="260" as="targetPoint"/>
                        <Array as="points">
                            <mxPoint x="710" y="580"/>
                        </Array>
                    </mxGeometry>
                </mxCell>
                <mxCell id="kvaUCSGCvhoi4QqgEwGG-84" value="" style="endArrow=none;html=1;rounded=0;exitX=1.014;exitY=0;exitDx=0;exitDy=0;entryX=0;entryY=0.5;entryDx=0;entryDy=0;exitPerimeter=0;" parent="1" source="kvaUCSGCvhoi4QqgEwGG-12" target="kvaUCSGCvhoi4QqgEwGG-5" edge="1">
                    <mxGeometry width="50" height="50" relative="1" as="geometry">
                        <mxPoint x="494.98" y="205.01199999999994" as="sourcePoint"/>
                        <mxPoint x="650" y="206" as="targetPoint"/>
                    </mxGeometry>
                </mxCell>
                <mxCell id="kvaUCSGCvhoi4QqgEwGG-86" value="" style="endArrow=none;html=1;rounded=0;exitX=1;exitY=0.5;exitDx=0;exitDy=0;entryX=0;entryY=0.5;entryDx=0;entryDy=0;" parent="1" source="kvaUCSGCvhoi4QqgEwGG-5" target="I_-aReT9PgxBrzWjO7Ln-12" edge="1">
                    <mxGeometry width="50" height="50" relative="1" as="geometry">
                        <mxPoint x="790" y="206" as="sourcePoint"/>
                        <mxPoint x="860" y="206" as="targetPoint"/>
                    </mxGeometry>
                </mxCell>
                <mxCell id="kvaUCSGCvhoi4QqgEwGG-90" value="" style="endArrow=block;endSize=16;endFill=0;html=1;rounded=0;entryX=0.5;entryY=1;entryDx=0;entryDy=0;entryPerimeter=0;exitX=0.5;exitY=0;exitDx=0;exitDy=0;" parent="1" source="kvaUCSGCvhoi4QqgEwGG-21" target="kvaUCSGCvhoi4QqgEwGG-57" edge="1">
                    <mxGeometry width="160" relative="1" as="geometry">
                        <mxPoint x="750" y="490" as="sourcePoint"/>
                        <mxPoint x="910" y="490" as="targetPoint"/>
                    </mxGeometry>
                </mxCell>
                <mxCell id="kvaUCSGCvhoi4QqgEwGG-91" value="" style="endArrow=block;endSize=16;endFill=0;html=1;rounded=0;entryX=0.5;entryY=0;entryDx=0;entryDy=0;exitX=0.5;exitY=1;exitDx=0;exitDy=0;exitPerimeter=0;" parent="1" source="kvaUCSGCvhoi4QqgEwGG-25" target="kvaUCSGCvhoi4QqgEwGG-54" edge="1">
                    <mxGeometry width="160" relative="1" as="geometry">
                        <mxPoint x="930" y="550" as="sourcePoint"/>
                        <mxPoint x="930" y="434" as="targetPoint"/>
                        <Array as="points">
                            <mxPoint x="1120" y="290"/>
                            <mxPoint x="920" y="290"/>
                        </Array>
                    </mxGeometry>
                </mxCell>
                <mxCell id="kvaUCSGCvhoi4QqgEwGG-93" value="" style="endArrow=none;html=1;rounded=0;exitX=1;exitY=0.5;exitDx=0;exitDy=0;" parent="1" source="kvaUCSGCvhoi4QqgEwGG-22" edge="1">
                    <mxGeometry width="50" height="50" relative="1" as="geometry">
                        <mxPoint x="1040" y="710" as="sourcePoint"/>
                        <mxPoint x="1150" y="676" as="targetPoint"/>
                        <Array as="points">
                            <mxPoint x="1040" y="580"/>
                            <mxPoint x="1040" y="676"/>
                        </Array>
                    </mxGeometry>
                </mxCell>
                <mxCell id="kvaUCSGCvhoi4QqgEwGG-94" value="" style="endArrow=none;html=1;rounded=0;entryX=0;entryY=0.5;entryDx=0;entryDy=0;" parent="1" target="kvaUCSGCvhoi4QqgEwGG-30" edge="1">
                    <mxGeometry width="50" height="50" relative="1" as="geometry">
                        <mxPoint x="1040" y="580" as="sourcePoint"/>
                        <mxPoint x="1120" y="520" as="targetPoint"/>
                        <Array as="points">
                            <mxPoint x="1040" y="390"/>
                        </Array>
                    </mxGeometry>
                </mxCell>
                <mxCell id="kvaUCSGCvhoi4QqgEwGG-96" value="" style="endArrow=none;html=1;rounded=0;exitX=1;exitY=0.5;exitDx=0;exitDy=0;entryX=0.5;entryY=0;entryDx=0;entryDy=0;" parent="1" source="I_-aReT9PgxBrzWjO7Ln-14" target="kvaUCSGCvhoi4QqgEwGG-26" edge="1">
                    <mxGeometry width="50" height="50" relative="1" as="geometry">
                        <mxPoint x="1340" y="210" as="sourcePoint"/>
                        <mxPoint x="1390" y="160" as="targetPoint"/>
                        <Array as="points">
                            <mxPoint x="1360" y="209"/>
                        </Array>
                    </mxGeometry>
                </mxCell>
                <mxCell id="kvaUCSGCvhoi4QqgEwGG-98" value="" style="endArrow=none;html=1;rounded=0;entryX=0.5;entryY=0;entryDx=0;entryDy=0;exitX=0;exitY=0;exitDx=0;exitDy=0;exitPerimeter=0;" parent="1" source="kvaUCSGCvhoi4QqgEwGG-162" target="kvaUCSGCvhoi4QqgEwGG-31" edge="1">
                    <mxGeometry width="50" height="50" relative="1" as="geometry">
                        <mxPoint x="1130" y="270" as="sourcePoint"/>
                        <mxPoint x="1120" y="530" as="targetPoint"/>
                        <Array as="points">
                            <mxPoint x="1130" y="330"/>
                            <mxPoint x="1220" y="330"/>
                        </Array>
                    </mxGeometry>
                </mxCell>
                <mxCell id="kvaUCSGCvhoi4QqgEwGG-99" value="sign up" style="text;whiteSpace=wrap;html=1;" parent="1" vertex="1">
                    <mxGeometry x="370" y="110" width="60" height="30" as="geometry"/>
                </mxCell>
                <mxCell id="kvaUCSGCvhoi4QqgEwGG-101" value="pay" style="text;html=1;align=center;verticalAlign=middle;resizable=0;points=[];autosize=1;strokeColor=none;fillColor=none;" parent="1" vertex="1">
                    <mxGeometry x="414" y="261" width="30" height="20" as="geometry"/>
                </mxCell>
                <mxCell id="kvaUCSGCvhoi4QqgEwGG-102" value="become" style="text;html=1;align=center;verticalAlign=middle;resizable=0;points=[];autosize=1;strokeColor=none;fillColor=none;" parent="1" vertex="1">
                    <mxGeometry x="355" y="530" width="60" height="20" as="geometry"/>
                </mxCell>
                <mxCell id="kvaUCSGCvhoi4QqgEwGG-103" value="" style="endArrow=none;html=1;rounded=0;entryX=0.314;entryY=1;entryDx=0;entryDy=0;entryPerimeter=0;exitX=1;exitY=0.5;exitDx=0;exitDy=0;" parent="1" source="kvaUCSGCvhoi4QqgEwGG-41" target="I_-aReT9PgxBrzWjO7Ln-18" edge="1">
                    <mxGeometry width="50" height="50" relative="1" as="geometry">
                        <mxPoint x="270" y="310" as="sourcePoint"/>
                        <mxPoint x="320" y="260" as="targetPoint"/>
                        <Array as="points">
                            <mxPoint x="280" y="340"/>
                            <mxPoint x="280" y="250"/>
                            <mxPoint x="388" y="250"/>
                        </Array>
                    </mxGeometry>
                </mxCell>
                <mxCell id="kvaUCSGCvhoi4QqgEwGG-104" value="" style="endArrow=none;html=1;rounded=0;entryX=-0.007;entryY=-0.154;entryDx=0;entryDy=0;entryPerimeter=0;exitX=0.5;exitY=1;exitDx=0;exitDy=0;exitPerimeter=0;" parent="1" source="kvaUCSGCvhoi4QqgEwGG-43" target="I_-aReT9PgxBrzWjO7Ln-22" edge="1">
                    <mxGeometry width="50" height="50" relative="1" as="geometry">
                        <mxPoint x="250" y="580" as="sourcePoint"/>
                        <mxPoint x="300" y="530" as="targetPoint"/>
                        <Array as="points">
                            <mxPoint x="120" y="580"/>
                        </Array>
                    </mxGeometry>
                </mxCell>
                <mxCell id="kvaUCSGCvhoi4QqgEwGG-105" value="" style="endArrow=none;html=1;rounded=0;entryX=0;entryY=-0.038;entryDx=0;entryDy=0;entryPerimeter=0;exitX=0.5;exitY=0;exitDx=0;exitDy=0;" parent="1" source="kvaUCSGCvhoi4QqgEwGG-40" target="I_-aReT9PgxBrzWjO7Ln-6" edge="1">
                    <mxGeometry width="50" height="50" relative="1" as="geometry">
                        <mxPoint x="100" y="70" as="sourcePoint"/>
                        <mxPoint x="150" y="20" as="targetPoint"/>
                        <Array as="points">
                            <mxPoint x="120" y="35"/>
                        </Array>
                    </mxGeometry>
                </mxCell>
                <mxCell id="kvaUCSGCvhoi4QqgEwGG-106" value="report" style="text;html=1;align=center;verticalAlign=middle;resizable=0;points=[];autosize=1;strokeColor=none;fillColor=none;" parent="1" vertex="1">
                    <mxGeometry x="150" y="10" width="50" height="20" as="geometry"/>
                </mxCell>
                <mxCell id="kvaUCSGCvhoi4QqgEwGG-107" value="report" style="text;html=1;align=center;verticalAlign=middle;resizable=0;points=[];autosize=1;strokeColor=none;fillColor=none;" parent="1" vertex="1">
                    <mxGeometry x="130" y="550" width="50" height="20" as="geometry"/>
                </mxCell>
                <mxCell id="kvaUCSGCvhoi4QqgEwGG-108" value="report" style="text;html=1;align=center;verticalAlign=middle;resizable=0;points=[];autosize=1;strokeColor=none;fillColor=none;" parent="1" vertex="1">
                    <mxGeometry x="230" y="320" width="50" height="20" as="geometry"/>
                </mxCell>
                <mxCell id="kvaUCSGCvhoi4QqgEwGG-111" value="search" style="text;html=1;align=center;verticalAlign=middle;resizable=0;points=[];autosize=1;strokeColor=none;fillColor=none;" parent="1" vertex="1">
                    <mxGeometry x="570" y="10" width="50" height="20" as="geometry"/>
                </mxCell>
                <mxCell id="kvaUCSGCvhoi4QqgEwGG-112" value="search" style="text;html=1;align=center;verticalAlign=middle;resizable=0;points=[];autosize=1;strokeColor=none;fillColor=none;" parent="1" vertex="1">
                    <mxGeometry x="540" y="170" width="50" height="20" as="geometry"/>
                </mxCell>
                <mxCell id="kvaUCSGCvhoi4QqgEwGG-113" value="play" style="text;html=1;align=center;verticalAlign=middle;resizable=0;points=[];autosize=1;strokeColor=none;fillColor=none;" parent="1" vertex="1">
                    <mxGeometry x="780" y="424" width="40" height="20" as="geometry"/>
                </mxCell>
                <mxCell id="kvaUCSGCvhoi4QqgEwGG-114" value="search" style="text;html=1;align=center;verticalAlign=middle;resizable=0;points=[];autosize=1;strokeColor=none;fillColor=none;" parent="1" vertex="1">
                    <mxGeometry x="660" y="404" width="50" height="20" as="geometry"/>
                </mxCell>
                <mxCell id="kvaUCSGCvhoi4QqgEwGG-115" value="" style="endArrow=none;html=1;rounded=0;exitX=1;exitY=0.5;exitDx=0;exitDy=0;entryX=0;entryY=0.5;entryDx=0;entryDy=0;" parent="1" source="kvaUCSGCvhoi4QqgEwGG-13" target="kvaUCSGCvhoi4QqgEwGG-22" edge="1">
                    <mxGeometry width="50" height="50" relative="1" as="geometry">
                        <mxPoint x="790" y="260" as="sourcePoint"/>
                        <mxPoint x="840" y="210" as="targetPoint"/>
                        <Array as="points">
                            <mxPoint x="820" y="222"/>
                            <mxPoint x="820" y="580"/>
                        </Array>
                    </mxGeometry>
                </mxCell>
                <mxCell id="kvaUCSGCvhoi4QqgEwGG-116" value="play" style="text;html=1;align=center;verticalAlign=middle;resizable=0;points=[];autosize=1;strokeColor=none;fillColor=none;" parent="1" vertex="1">
                    <mxGeometry x="1000" y="144" width="40" height="20" as="geometry"/>
                </mxCell>
                <mxCell id="kvaUCSGCvhoi4QqgEwGG-117" value="insert" style="text;whiteSpace=wrap;html=1;" parent="1" vertex="1">
                    <mxGeometry x="790" y="140" width="40" height="30" as="geometry"/>
                </mxCell>
                <mxCell id="kvaUCSGCvhoi4QqgEwGG-119" value="inherit" style="text;whiteSpace=wrap;html=1;" parent="1" vertex="1">
                    <mxGeometry x="920" y="480" width="60" height="30" as="geometry"/>
                </mxCell>
                <mxCell id="kvaUCSGCvhoi4QqgEwGG-120" value="inherit" style="text;whiteSpace=wrap;html=1;" parent="1" vertex="1">
                    <mxGeometry x="980" y="260" width="60" height="30" as="geometry"/>
                </mxCell>
                <mxCell id="kvaUCSGCvhoi4QqgEwGG-121" value="review" style="text;whiteSpace=wrap;html=1;" parent="1" vertex="1">
                    <mxGeometry x="1170" y="840" width="60" height="30" as="geometry"/>
                </mxCell>
                <mxCell id="kvaUCSGCvhoi4QqgEwGG-122" value="review" style="text;whiteSpace=wrap;html=1;" parent="1" vertex="1">
                    <mxGeometry x="1370" y="640" width="60" height="30" as="geometry"/>
                </mxCell>
                <mxCell id="kvaUCSGCvhoi4QqgEwGG-123" value="send" style="text;whiteSpace=wrap;html=1;" parent="1" vertex="1">
                    <mxGeometry x="1080" y="640" width="50" height="30" as="geometry"/>
                </mxCell>
                <mxCell id="kvaUCSGCvhoi4QqgEwGG-124" value="send" style="text;whiteSpace=wrap;html=1;" parent="1" vertex="1">
                    <mxGeometry x="1130" y="357" width="50" height="30" as="geometry"/>
                </mxCell>
                <mxCell id="kvaUCSGCvhoi4QqgEwGG-125" value="send" style="text;whiteSpace=wrap;html=1;" parent="1" vertex="1">
                    <mxGeometry x="1280" y="181" width="50" height="30" as="geometry"/>
                </mxCell>
                <mxCell id="kvaUCSGCvhoi4QqgEwGG-126" value="send" style="text;whiteSpace=wrap;html=1;" parent="1" vertex="1">
                    <mxGeometry x="1160" y="298" width="50" height="30" as="geometry"/>
                </mxCell>
                <mxCell id="kvaUCSGCvhoi4QqgEwGG-127" value="1" style="text;html=1;align=center;verticalAlign=middle;resizable=0;points=[];autosize=1;strokeColor=none;fillColor=none;" parent="1" vertex="1">
                    <mxGeometry x="320" y="10" width="20" height="20" as="geometry"/>
                </mxCell>
                <mxCell id="kvaUCSGCvhoi4QqgEwGG-128" value="1..*" style="text;html=1;align=center;verticalAlign=middle;resizable=0;points=[];autosize=1;strokeColor=none;fillColor=none;" parent="1" vertex="1">
                    <mxGeometry x="95" y="278" width="30" height="20" as="geometry"/>
                </mxCell>
                <mxCell id="kvaUCSGCvhoi4QqgEwGG-129" value="1" style="text;html=1;align=center;verticalAlign=middle;resizable=0;points=[];autosize=1;strokeColor=none;fillColor=none;" parent="1" vertex="1">
                    <mxGeometry x="320" y="560" width="20" height="20" as="geometry"/>
                </mxCell>
                <mxCell id="kvaUCSGCvhoi4QqgEwGG-130" value="1..*" style="text;html=1;align=center;verticalAlign=middle;resizable=0;points=[];autosize=1;strokeColor=none;fillColor=none;" parent="1" vertex="1">
                    <mxGeometry x="120" y="409" width="30" height="20" as="geometry"/>
                </mxCell>
                <mxCell id="kvaUCSGCvhoi4QqgEwGG-131" value="1..*" style="text;html=1;align=center;verticalAlign=middle;resizable=0;points=[];autosize=1;strokeColor=none;fillColor=none;" parent="1" vertex="1">
                    <mxGeometry x="414" y="303" width="30" height="20" as="geometry"/>
                </mxCell>
                <mxCell id="kvaUCSGCvhoi4QqgEwGG-132" value="1" style="text;html=1;align=center;verticalAlign=middle;resizable=0;points=[];autosize=1;strokeColor=none;fillColor=none;" parent="1" vertex="1">
                    <mxGeometry x="414" y="222" width="20" height="20" as="geometry"/>
                </mxCell>
                <mxCell id="kvaUCSGCvhoi4QqgEwGG-133" value="1" style="text;html=1;align=center;verticalAlign=middle;resizable=0;points=[];autosize=1;strokeColor=none;fillColor=none;" parent="1" vertex="1">
                    <mxGeometry x="390" y="62" width="20" height="20" as="geometry"/>
                </mxCell>
                <mxCell id="kvaUCSGCvhoi4QqgEwGG-134" value="1" style="text;html=1;align=center;verticalAlign=middle;resizable=0;points=[];autosize=1;strokeColor=none;fillColor=none;" parent="1" vertex="1">
                    <mxGeometry x="394" y="150" width="20" height="20" as="geometry"/>
                </mxCell>
                <mxCell id="kvaUCSGCvhoi4QqgEwGG-135" value="1" style="text;html=1;align=center;verticalAlign=middle;resizable=0;points=[];autosize=1;strokeColor=none;fillColor=none;" parent="1" vertex="1">
                    <mxGeometry x="414" y="510" width="20" height="20" as="geometry"/>
                </mxCell>
                <mxCell id="kvaUCSGCvhoi4QqgEwGG-136" value="1" style="text;html=1;align=center;verticalAlign=middle;resizable=0;points=[];autosize=1;strokeColor=none;fillColor=none;" parent="1" vertex="1">
                    <mxGeometry x="414" y="540" width="20" height="20" as="geometry"/>
                </mxCell>
                <mxCell id="kvaUCSGCvhoi4QqgEwGG-137" value="1" style="text;html=1;align=center;verticalAlign=middle;resizable=0;points=[];autosize=1;strokeColor=none;fillColor=none;" parent="1" vertex="1">
                    <mxGeometry x="484" y="560" width="20" height="20" as="geometry"/>
                </mxCell>
                <mxCell id="kvaUCSGCvhoi4QqgEwGG-140" value="1..*" style="text;html=1;align=center;verticalAlign=middle;resizable=0;points=[];autosize=1;strokeColor=none;fillColor=none;" parent="1" vertex="1">
                    <mxGeometry x="680" y="265" width="30" height="20" as="geometry"/>
                </mxCell>
                <mxCell id="kvaUCSGCvhoi4QqgEwGG-141" value="1..*" style="text;html=1;align=center;verticalAlign=middle;resizable=0;points=[];autosize=1;strokeColor=none;fillColor=none;" parent="1" vertex="1">
                    <mxGeometry x="710" y="137" width="30" height="20" as="geometry"/>
                </mxCell>
                <mxCell id="kvaUCSGCvhoi4QqgEwGG-142" value="1..*" style="text;html=1;align=center;verticalAlign=middle;resizable=0;points=[];autosize=1;strokeColor=none;fillColor=none;" parent="1" vertex="1">
                    <mxGeometry x="610" y="173" width="30" height="20" as="geometry"/>
                </mxCell>
                <mxCell id="kvaUCSGCvhoi4QqgEwGG-143" value="1" style="text;html=1;align=center;verticalAlign=middle;resizable=0;points=[];autosize=1;strokeColor=none;fillColor=none;" parent="1" vertex="1">
                    <mxGeometry x="484" y="173" width="20" height="20" as="geometry"/>
                </mxCell>
                <mxCell id="kvaUCSGCvhoi4QqgEwGG-144" value="1" style="text;html=1;align=center;verticalAlign=middle;resizable=0;points=[];autosize=1;strokeColor=none;fillColor=none;" parent="1" vertex="1">
                    <mxGeometry x="484" y="20" width="20" height="20" as="geometry"/>
                </mxCell>
                <mxCell id="kvaUCSGCvhoi4QqgEwGG-145" value="1" style="text;html=1;align=center;verticalAlign=middle;resizable=0;points=[];autosize=1;strokeColor=none;fillColor=none;" parent="1" vertex="1">
                    <mxGeometry x="780" y="162" width="20" height="20" as="geometry"/>
                </mxCell>
                <mxCell id="kvaUCSGCvhoi4QqgEwGG-146" value="1" style="text;html=1;align=center;verticalAlign=middle;resizable=0;points=[];autosize=1;strokeColor=none;fillColor=none;" parent="1" vertex="1">
                    <mxGeometry x="434" y="190" width="20" height="20" as="geometry"/>
                </mxCell>
                <mxCell id="kvaUCSGCvhoi4QqgEwGG-147" value="1..*" style="text;html=1;align=center;verticalAlign=middle;resizable=0;points=[];autosize=1;strokeColor=none;fillColor=none;" parent="1" vertex="1">
                    <mxGeometry x="820" y="162" width="30" height="20" as="geometry"/>
                </mxCell>
                <mxCell id="kvaUCSGCvhoi4QqgEwGG-149" value="1" style="text;html=1;align=center;verticalAlign=middle;resizable=0;points=[];autosize=1;strokeColor=none;fillColor=none;" parent="1" vertex="1">
                    <mxGeometry x="990" y="162" width="20" height="20" as="geometry"/>
                </mxCell>
                <mxCell id="kvaUCSGCvhoi4QqgEwGG-150" value="1..*" style="text;html=1;align=center;verticalAlign=middle;resizable=0;points=[];autosize=1;strokeColor=none;fillColor=none;" parent="1" vertex="1">
                    <mxGeometry x="1020" y="161" width="30" height="20" as="geometry"/>
                </mxCell>
                <mxCell id="kvaUCSGCvhoi4QqgEwGG-154" value="1..*" style="text;html=1;align=center;verticalAlign=middle;resizable=0;points=[];autosize=1;strokeColor=none;fillColor=none;" parent="1" vertex="1">
                    <mxGeometry x="1360" y="281" width="30" height="20" as="geometry"/>
                </mxCell>
                <mxCell id="kvaUCSGCvhoi4QqgEwGG-155" value="1" style="text;html=1;align=center;verticalAlign=middle;resizable=0;points=[];autosize=1;strokeColor=none;fillColor=none;" parent="1" vertex="1">
                    <mxGeometry x="1190" y="186" width="20" height="20" as="geometry"/>
                </mxCell>
                <mxCell id="kvaUCSGCvhoi4QqgEwGG-156" value="1" style="text;html=1;align=center;verticalAlign=middle;resizable=0;points=[];autosize=1;strokeColor=none;fillColor=none;" parent="1" vertex="1">
                    <mxGeometry x="990" y="560" width="20" height="20" as="geometry"/>
                </mxCell>
                <mxCell id="kvaUCSGCvhoi4QqgEwGG-158" value="1..*" style="text;html=1;align=center;verticalAlign=middle;resizable=0;points=[];autosize=1;strokeColor=none;fillColor=none;" parent="1" vertex="1">
                    <mxGeometry x="1220" y="560" width="30" height="20" as="geometry"/>
                </mxCell>
                <mxCell id="kvaUCSGCvhoi4QqgEwGG-159" value="1..*" style="text;html=1;align=center;verticalAlign=middle;resizable=0;points=[];autosize=1;strokeColor=none;fillColor=none;" parent="1" vertex="1">
                    <mxGeometry x="1260" y="368" width="30" height="20" as="geometry"/>
                </mxCell>
                <mxCell id="kvaUCSGCvhoi4QqgEwGG-161" value="1..*" style="text;html=1;align=center;verticalAlign=middle;resizable=0;points=[];autosize=1;strokeColor=none;fillColor=none;" parent="1" vertex="1">
                    <mxGeometry x="1120" y="650" width="30" height="20" as="geometry"/>
                </mxCell>
                <mxCell id="kvaUCSGCvhoi4QqgEwGG-162" value="1" style="text;html=1;align=center;verticalAlign=middle;resizable=0;points=[];autosize=1;strokeColor=none;fillColor=none;" parent="1" vertex="1">
                    <mxGeometry x="1130" y="274" width="20" height="20" as="geometry"/>
                </mxCell>
                <mxCell id="kvaUCSGCvhoi4QqgEwGG-163" value="1" style="text;html=1;align=center;verticalAlign=middle;resizable=0;points=[];autosize=1;strokeColor=none;fillColor=none;" parent="1" vertex="1">
                    <mxGeometry x="940" y="764" width="20" height="20" as="geometry"/>
                </mxCell>
                <mxCell id="kvaUCSGCvhoi4QqgEwGG-164" value="1..*" style="text;html=1;align=center;verticalAlign=middle;resizable=0;points=[];autosize=1;strokeColor=none;fillColor=none;" parent="1" vertex="1">
                    <mxGeometry x="1190" y="796" width="30" height="20" as="geometry"/>
                </mxCell>
                <mxCell id="kvaUCSGCvhoi4QqgEwGG-165" value="1..*" style="text;html=1;align=center;verticalAlign=middle;resizable=0;points=[];autosize=1;strokeColor=none;fillColor=none;" parent="1" vertex="1">
                    <mxGeometry x="1330" y="460" width="30" height="20" as="geometry"/>
                </mxCell>
                <mxCell id="kvaUCSGCvhoi4QqgEwGG-166" value="1..*" style="text;html=1;align=center;verticalAlign=middle;resizable=0;points=[];autosize=1;strokeColor=none;fillColor=none;" parent="1" vertex="1">
                    <mxGeometry x="820" y="585" width="30" height="20" as="geometry"/>
                </mxCell>
                <mxCell id="kvaUCSGCvhoi4QqgEwGG-167" value="1" style="text;html=1;align=center;verticalAlign=middle;resizable=0;points=[];autosize=1;strokeColor=none;fillColor=none;" parent="1" vertex="1">
                    <mxGeometry x="780" y="230" width="20" height="20" as="geometry"/>
                </mxCell>
            </root>
        </mxGraphModel>
    </diagram>
</mxfile>